<svg xmlns="http://www.w3.org/2000/svg" width="1920" height="1080" viewBox="0 0 1920 1080">
<defs>
  <linearGradient id="bg" x1="0" y1="0" x2="0" y2="1">
    <stop offset="0%" stop-color="#0B121F"/>
    <stop offset="100%" stop-color="#132B3B"/>
  </linearGradient>
</defs>
<rect width="100%" height="100%" fill="url(#bg)"/>
<g opacity="0.28">
<line x1="0" y1="0" x2="0" y2="1080" stroke="#24384E" stroke-width="1"/><line x1="96" y1="0" x2="96" y2="1080" stroke="#24384E" stroke-width="1"/><line x1="192" y1="0" x2="192" y2="1080" stroke="#24384E" stroke-width="1"/><line x1="288" y1="0" x2="288" y2="1080" stroke="#24384E" stroke-width="1"/><line x1="384" y1="0" x2="384" y2="1080" stroke="#24384E" stroke-width="1"/><line x1="480" y1="0" x2="480" y2="1080" stroke="#24384E" stroke-width="1"/><line x1="576" y1="0" x2="576" y2="1080" stroke="#24384E" stroke-width="1"/><line x1="672" y1="0" x2="672" y2="1080" stroke="#24384E" stroke-width="1"/><line x1="768" y1="0" x2="768" y2="1080" stroke="#24384E" stroke-width="1"/><line x1="864" y1="0" x2="864" y2="1080" stroke="#24384E" stroke-width="1"/><line x1="960" y1="0" x2="960" y2="1080" stroke="#24384E" stroke-width="1"/><line x1="1056" y1="0" x2="1056" y2="1080" stroke="#24384E" stroke-width="1"/><line x1="1152" y1="0" x2="1152" y2="1080" stroke="#24384E" stroke-width="1"/><line x1="1248" y1="0" x2="1248" y2="1080" stroke="#24384E" stroke-width="1"/><line x1="1344" y1="0" x2="1344" y2="1080" stroke="#24384E" stroke-width="1"/><line x1="1440" y1="0" x2="1440" y2="1080" stroke="#24384E" stroke-width="1"/><line x1="1536" y1="0" x2="1536" y2="1080" stroke="#24384E" stroke-width="1"/><line x1="1632" y1="0" x2="1632" y2="1080" stroke="#24384E" stroke-width="1"/><line x1="1728" y1="0" x2="1728" y2="1080" stroke="#24384E" stroke-width="1"/><line x1="1824" y1="0" x2="1824" y2="1080" stroke="#24384E" stroke-width="1"/>
<line x1="0" y1="0" x2="1920" y2="0" stroke="#1F3248" stroke-width="1"/><line x1="0" y1="96" x2="1920" y2="96" stroke="#1F3248" stroke-width="1"/><line x1="0" y1="192" x2="1920" y2="192" stroke="#1F3248" stroke-width="1"/><line x1="0" y1="288" x2="1920" y2="288" stroke="#1F3248" stroke-width="1"/><line x1="0" y1="384" x2="1920" y2="384" stroke="#1F3248" stroke-width="1"/><line x1="0" y1="480" x2="1920" y2="480" stroke="#1F3248" stroke-width="1"/><line x1="0" y1="576" x2="1920" y2="576" stroke="#1F3248" stroke-width="1"/><line x1="0" y1="672" x2="1920" y2="672" stroke="#1F3248" stroke-width="1"/><line x1="0" y1="768" x2="1920" y2="768" stroke="#1F3248" stroke-width="1"/><line x1="0" y1="864" x2="1920" y2="864" stroke="#1F3248" stroke-width="1"/><line x1="0" y1="960" x2="1920" y2="960" stroke="#1F3248" stroke-width="1"/><line x1="0" y1="1056" x2="1920" y2="1056" stroke="#1F3248" stroke-width="1"/>
</g>
<text x="110" y="145" fill="#F2F7FB" font-size="64" font-weight="700" font-family="Arial, Helvetica, sans-serif">Как работает система</text>
<text x="110" y="205" fill="#B7CDDF" font-size="28" font-family="Arial, Helvetica, sans-serif">Pipeline обработки технологических временных рядов</text>

    <rect x="103" y="430" width="250" height="190" rx="24" fill="#0A0E16"/>
    <rect x="95" y="420" width="250" height="190" rx="24" fill="#18273B" stroke="#4A8CB4" stroke-width="3"/>
    <rect x="113" y="438" width="52" height="30" rx="12" fill="#4AC4DC"/>
    <text x="131" y="460" fill="#09121C" font-size="20" font-weight="700" font-family="Arial, Helvetica, sans-serif">1</text>
    <text x="117" y="508" fill="#F2F7FB" font-size="28" font-weight="700" font-family="Arial, Helvetica, sans-serif">1. Загрузка</text>
    <text x="117" y="548" fill="#C2D8E7" font-size="22" font-family="Arial, Helvetica, sans-serif">CSV / XLSX</text><text x="117" y="578" fill="#C2D8E7" font-size="22" font-family="Arial, Helvetica, sans-serif">временные метки</text><text x="117" y="608" fill="#C2D8E7" font-size="22" font-family="Arial, Helvetica, sans-serif">и сигналы</text>
        <line x1="357" y1="515" x2="375" y2="515" stroke="#4AC4DC" stroke-width="6"/>
        <polygon points="375,515 357,503 357,527" fill="#4AC4DC"/>
        
    <rect x="393" y="430" width="250" height="190" rx="24" fill="#0A0E16"/>
    <rect x="385" y="420" width="250" height="190" rx="24" fill="#18273B" stroke="#4A8CB4" stroke-width="3"/>
    <rect x="403" y="438" width="52" height="30" rx="12" fill="#4AC4DC"/>
    <text x="421" y="460" fill="#09121C" font-size="20" font-weight="700" font-family="Arial, Helvetica, sans-serif">2</text>
    <text x="407" y="508" fill="#F2F7FB" font-size="28" font-weight="700" font-family="Arial, Helvetica, sans-serif">2. Очистка</text>
    <text x="407" y="548" fill="#C2D8E7" font-size="22" font-family="Arial, Helvetica, sans-serif">сортировка по времени</text><text x="407" y="578" fill="#C2D8E7" font-size="22" font-family="Arial, Helvetica, sans-serif">удаление дублей</text><text x="407" y="608" fill="#C2D8E7" font-size="22" font-family="Arial, Helvetica, sans-serif">обработка пропусков</text>
        <line x1="647" y1="515" x2="665" y2="515" stroke="#4AC4DC" stroke-width="6"/>
        <polygon points="665,515 647,503 647,527" fill="#4AC4DC"/>
        
    <rect x="683" y="430" width="250" height="190" rx="24" fill="#0A0E16"/>
    <rect x="675" y="420" width="250" height="190" rx="24" fill="#18273B" stroke="#4A8CB4" stroke-width="3"/>
    <rect x="693" y="438" width="52" height="30" rx="12" fill="#4AC4DC"/>
    <text x="711" y="460" fill="#09121C" font-size="20" font-weight="700" font-family="Arial, Helvetica, sans-serif">3</text>
    <text x="697" y="508" fill="#F2F7FB" font-size="28" font-weight="700" font-family="Arial, Helvetica, sans-serif">3. Признаки</text>
    <text x="697" y="548" fill="#C2D8E7" font-size="22" font-family="Arial, Helvetica, sans-serif">локальные окна</text><text x="697" y="578" fill="#C2D8E7" font-size="22" font-family="Arial, Helvetica, sans-serif">изменение сигнала</text><text x="697" y="608" fill="#C2D8E7" font-size="22" font-family="Arial, Helvetica, sans-serif">вариация</text>
        <line x1="937" y1="515" x2="955" y2="515" stroke="#4AC4DC" stroke-width="6"/>
        <polygon points="955,515 937,503 937,527" fill="#4AC4DC"/>
        
    <rect x="973" y="430" width="250" height="190" rx="24" fill="#0A0E16"/>
    <rect x="965" y="420" width="250" height="190" rx="24" fill="#18273B" stroke="#4A8CB4" stroke-width="3"/>
    <rect x="983" y="438" width="52" height="30" rx="12" fill="#4AC4DC"/>
    <text x="1001" y="460" fill="#09121C" font-size="20" font-weight="700" font-family="Arial, Helvetica, sans-serif">4</text>
    <text x="987" y="508" fill="#F2F7FB" font-size="28" font-weight="700" font-family="Arial, Helvetica, sans-serif">4. Анализ</text>
    <text x="987" y="548" fill="#C2D8E7" font-size="22" font-family="Arial, Helvetica, sans-serif">normal / warning /</text><text x="987" y="578" fill="#C2D8E7" font-size="22" font-family="Arial, Helvetica, sans-serif">unstable</text><text x="987" y="608" fill="#C2D8E7" font-size="22" font-family="Arial, Helvetica, sans-serif">интервалы нестабильности</text>
        <line x1="1227" y1="515" x2="1245" y2="515" stroke="#4AC4DC" stroke-width="6"/>
        <polygon points="1245,515 1227,503 1227,527" fill="#4AC4DC"/>
        
    <rect x="1263" y="430" width="250" height="190" rx="24" fill="#0A0E16"/>
    <rect x="1255" y="420" width="250" height="190" rx="24" fill="#18273B" stroke="#4A8CB4" stroke-width="3"/>
    <rect x="1273" y="438" width="52" height="30" rx="12" fill="#4AC4DC"/>
    <text x="1291" y="460" fill="#09121C" font-size="20" font-weight="700" font-family="Arial, Helvetica, sans-serif">5</text>
    <text x="1277" y="508" fill="#F2F7FB" font-size="28" font-weight="700" font-family="Arial, Helvetica, sans-serif">5. Прогноз</text>
    <text x="1277" y="548" fill="#C2D8E7" font-size="22" font-family="Arial, Helvetica, sans-serif">краткосрочный</text><text x="1277" y="578" fill="#C2D8E7" font-size="22" font-family="Arial, Helvetica, sans-serif">прогноз</text><text x="1277" y="608" fill="#C2D8E7" font-size="22" font-family="Arial, Helvetica, sans-serif">оценка риска</text>
        <line x1="1517" y1="515" x2="1535" y2="515" stroke="#4AC4DC" stroke-width="6"/>
        <polygon points="1535,515 1517,503 1517,527" fill="#4AC4DC"/>
        
    <rect x="1553" y="430" width="250" height="190" rx="24" fill="#0A0E16"/>
    <rect x="1545" y="420" width="250" height="190" rx="24" fill="#18273B" stroke="#4A8CB4" stroke-width="3"/>
    <rect x="1563" y="438" width="52" height="30" rx="12" fill="#4AC4DC"/>
    <text x="1581" y="460" fill="#09121C" font-size="20" font-weight="700" font-family="Arial, Helvetica, sans-serif">6</text>
    <text x="1567" y="508" fill="#F2F7FB" font-size="28" font-weight="700" font-family="Arial, Helvetica, sans-serif">6. Результат</text>
    <text x="1567" y="548" fill="#C2D8E7" font-size="22" font-family="Arial, Helvetica, sans-serif">объяснения</text><text x="1567" y="578" fill="#C2D8E7" font-size="22" font-family="Arial, Helvetica, sans-serif">отчёт</text><text x="1567" y="608" fill="#C2D8E7" font-size="22" font-family="Arial, Helvetica, sans-serif">API / интерфейс</text>
<text x="110" y="950" fill="#90A6BA" font-size="20" font-family="Arial, Helvetica, sans-serif">От входного файла до интерпретируемого результата для инженера</text>
</svg>
