<svg xmlns="http://www.w3.org/2000/svg" width="1920" height="1080">
<rect width="100%" height="100%" fill="#0C1220"/>
<text x="120" y="140" fill="#F0F5FA" font-size="64" font-weight="700">Точки vs Интервалы</text>
<polyline points="120,557 126,630 132,612 138,614 144,657 150,593 156,638 162,606 168,579 174,601 180,592 186,600 192,645 198,596 204,566 210,563 216,560 222,548 228,541 234,605 240,659 246,542 252,574 258,546 264,598 270,648 276,562 282,576 288,611 294,619 300,612 306,595 312,576 318,572 324,574 330,588 336,562 342,640 348,651 354,549 360,574 366,567 372,577 378,653 384,656 390,657 396,587 402,573 408,591 414,619 420,648 426,614 432,607 438,624 444,618 450,583 456,554 462,587 468,550 474,612 480,646 486,620 492,609 498,645 504,639 510,554 516,564 522,570 528,572 534,655 540,638 546,626 552,547 558,564 564,657 570,612 576,619 582,561 588,585 594,599 600,575 606,655 612,639 618,601 624,570 630,563 636,653 642,617 648,597 654,642 660,604 666,592 672,578 678,598 684,625 690,547 696,580 702,541 708,658 714,656 720,629 726,628 732,603 738,561 744,617 750,575 756,575 762,607 768,556 774,645 780,657 786,575 792,625 798,578 804,619 810,613 816,655 822,625 828,623 834,624" stroke="#CCCCCC" fill="none" stroke-width="2"/><polyline points="1000,593 1006,649 1012,588 1018,569 1024,638 1030,617 1036,628 1042,654 1048,614 1054,588 1060,634 1066,545 1072,593 1078,553 1084,556 1090,596 1096,546 1102,632 1108,648 1114,583 1120,602 1126,652 1132,628 1138,566 1144,589 1150,639 1156,561 1162,620 1168,587 1174,567 1180,647 1186,599 1192,603 1198,583 1204,611 1210,556 1216,548 1222,563 1228,620 1234,581 1240,593 1246,644 1252,597 1258,648 1264,638 1270,556 1276,659 1282,577 1288,550 1294,569 1300,566 1306,623 1312,553 1318,599 1324,617 1330,580 1336,547 1342,636 1348,629 1354,634 1360,620 1366,656 1372,618 1378,612 1384,584 1390,658 1396,551 1402,569 1408,644 1414,627 1420,560 1426,622 1432,570 1438,640 1444,587 1450,566 1456,597 1462,629 1468,570 1474,566 1480,541 1486,621 1492,659 1498,650 1504,541 1510,601 1516,581 1522,591 1528,647 1534,616 1540,597 1546,654 1552,658 1558,656 1564,632 1570,609 1576,585 1582,594 1588,599 1594,655 1600,565 1606,546 1612,586 1618,554 1624,553 1630,642 1636,631 1642,646 1648,588 1654,580 1660,621 1666,618 1672,549 1678,565 1684,580 1690,581 1696,545 1702,651 1708,547 1714,621" stroke="#CCCCCC" fill="none" stroke-width="2"/>
<rect x="1180" y="400" width="30" height="400" fill="#FF5050" fill-opacity="0.3"/>
<rect x="1420" y="400" width="30" height="400" fill="#FF5050" fill-opacity="0.3"/>

<text x="120" y="780" fill="#C8DCEB" font-size="28">Отдельные аномальные точки</text>
<text x="1000" y="780" fill="#C8DCEB" font-size="28">Интервалы нестабильности</text>
</svg>
