<?xml version="1.0" encoding="utf-8"?>
<!-- Generator: Adobe Illustrator 25.2.3, SVG Export Plug-In . SVG Version: 6.00 Build 0)  -->
<svg version="1.1" id="Слой_1" xmlns="http://www.w3.org/2000/svg" xmlns:xlink="http://www.w3.org/1999/xlink" x="0px" y="0px"
	 viewBox="0 0 1920 1080" style="enable-background:new 0 0 1920 1080;" xml:space="preserve">
<style type="text/css">
	.st0{fill:url(#SVGID_1_);}
	.st1{fill:#F0F5FA;}
	.st2{font-family:'Arial-BoldMT';}
	.st3{font-size:64px;}
	.st4{fill:#B4D0E5;}
	.st5{font-family:'ArialMT';}
	.st6{font-size:28px;}
	.st7{fill:#1A283C;stroke:#4A96C8;stroke-width:3;}
	.st8{fill:#FFFFFF;}
	.st9{font-size:34px;}
	.st10{fill:#C8DCEB;}
	.st11{font-size:26px;}
	.st12{enable-background:new    ;}
	.st13{fill:none;stroke:#50C8FF;stroke-width:6;}
	.st14{fill:#50C8FF;}
	.st15{fill:#8CA6BB;}
	.st16{font-size:22px;}
</style>
<linearGradient id="SVGID_1_" gradientUnits="userSpaceOnUse" x1="420.2812" y1="1080" x2="420.2812" y2="1079" gradientTransform="matrix(1920 0 0 -1080 -805980 1166400)">
	<stop  offset="0" style="stop-color:#0A121E"/>
	<stop  offset="1" style="stop-color:#142A3A"/>
</linearGradient>
<rect class="st0" width="1920" height="1080"/>
<text transform="matrix(1 0 0 1 110 140)" class="st1 st2 st3">Внедрение системы</text>
<text transform="matrix(1 0 0 1 110 200)" class="st4 st5 st6">Пошаговый roadmap перехода от MVP к промышленному применению</text>
<path class="st7" d="M195.5,400h402c19.6,0,35.5,13.4,35.5,30v200c0,16.6-15.9,30-35.5,30h-402c-19.6,0-35.5-13.4-35.5-30V430
	C160,413.4,175.9,400,195.5,400z"/>
<text transform="matrix(1 0 0 1 190 470)" class="st8 st2 st9">1. Пилот</text>
<text transform="matrix(1 0 0 1 190 520)" class="st10 st5 st11">Анализ архивных данных</text>
<text transform="matrix(1 0 0 1 190 556)" class="st10 st5 st11">конкретного процесса</text>
<text transform="matrix(1 0 0 1 190 592)" class="st12"><tspan x="0" y="0" class="st10 st5 st11">выявление </tspan><tspan x="0" y="31.2" class="st10 st5 st11">нестабильных режимов</tspan></text>
<line class="st13" x1="646.4" y1="530" x2="736.4" y2="530"/>
<polygon class="st14" points="746.4,530 726.4,518 726.4,542 "/>
<path class="st7" d="M791.8,400h371.7c18.1,0,32.8,13.4,32.8,30v200c0,16.6-14.7,30-32.8,30H791.8c-18.1,0-32.8-13.4-32.8-30V430
	C759,413.4,773.7,400,791.8,400z"/>
<text transform="matrix(1 0 0 1 789.037 470)" class="st8 st2 st9">2. Настройка</text>
<text transform="matrix(1 0 0 1 789.037 520)" class="st10 st5 st11">Подбор параметров</text>
<text transform="matrix(1 0 0 1 789.037 556)" class="st12"><tspan x="0" y="0" class="st10 st5 st11">адаптация под </tspan><tspan x="0" y="31.2" class="st10 st5 st11">предметную область</tspan></text>
<text transform="matrix(1 0 0 1 789.037 623.2002)" class="st10 st5 st11">снижение ложных срабатываний</text>
<line class="st13" x1="1209" y1="530" x2="1299" y2="530"/>
<polygon class="st14" points="1303.8,530 1283.8,518 1283.8,542 "/>
<path class="st7" d="M1349,400h340c16.6,0,30,13.4,30,30v200c0,16.6-13.4,30-30,30h-340c-16.6,0-30-13.4-30-30V430
	C1319,413.4,1332.5,400,1349,400z"/>
<text transform="matrix(1 0 0 1 1349.0371 470)" class="st8 st2 st9">3. Интеграция</text>
<text transform="matrix(1 0 0 1 1349.0371 520)" class="st10 st5 st11">Подключение через API</text>
<text transform="matrix(1 0 0 1 1349.0371 556)" class="st10 st5 st11">в существующие системы</text>
<text transform="matrix(1 0 0 1 1349.0371 592)" class="st10 st5 st11">автоматизация анализа</text>
<text transform="matrix(1 0 0 1 110 950)" class="st15 st5 st16">От пилотного анализа к интеграции в цифровой контур предприятия</text>
</svg>
