<svg xmlns="http://www.w3.org/2000/svg" width="1920" height="1080" viewBox="0 0 1920 1080">
<rect width="100%" height="100%" fill="#F5F7FA"/>
<rect x="30" y="30" width="1860" height="1020" rx="24" fill="#FFFFFF" stroke="#D2D7DE" stroke-width="2"/>
<rect x="30" y="30" width="1860" height="70" rx="24" fill="#F6F8FB" stroke="#D2D7DE" stroke-width="2"/>
<circle cx="67" cy="61" r="7" fill="#FF5F56"/>
<circle cx="93" cy="61" r="7" fill="#FFBD2E"/>
<circle cx="119" cy="61" r="7" fill="#27C93F"/>
<rect x="180" y="47" width="1370" height="36" rx="18" fill="#FFFFFF" stroke="#D7DCE4" stroke-width="2"/>
<text x="205" y="72" font-size="24" font-family="Arial, Helvetica, sans-serif" fill="#505A69">http://127.0.0.1:8000/docs</text>
<text x="1600" y="72" font-size="24" font-weight="700" font-family="Arial, Helvetica, sans-serif" fill="#308E84">FastAPI /docs</text>

<text x="95" y="190" font-size="56" font-weight="700" font-family="Arial, Helvetica, sans-serif" fill="#283240">FastAPI /docs</text>
<text x="95" y="240" font-size="28" font-family="Arial, Helvetica, sans-serif" fill="#697382">API для интеграции системы анализа временных рядов во внешний цифровой контур</text>

<rect x="1350" y="145" width="460" height="150" rx="22" fill="#F3FAF8" stroke="#BEDFD8" stroke-width="2"/>
<text x="1380" y="185" font-size="28" font-weight="700" font-family="Arial, Helvetica, sans-serif" fill="#248078">Зачем это нужно</text>
<text x="1380" y="228" font-size="22" font-family="Arial, Helvetica, sans-serif" fill="#465464">• интеграция с внешними системами</text>
<text x="1380" y="258" font-size="22" font-family="Arial, Helvetica, sans-serif" fill="#465464">• автоматический запуск анализа</text>
<text x="1380" y="288" font-size="22" font-family="Arial, Helvetica, sans-serif" fill="#465464">• получение отчётов и метрик</text>

    <rect x="90" y="340" width="1740" height="135" rx="18" fill="#FFFFFF" stroke="#DCE1E8" stroke-width="2"/>
    <rect x="120" y="378" width="110" height="50" rx="14" fill="#4376D4"/>
    <text x="145" y="412" font-size="24" font-weight="700" font-family="Arial, Helvetica, sans-serif" fill="#FFFFFF">POST</text>
    <text x="250" y="410" font-size="32" font-weight="700" font-family="Arial, Helvetica, sans-serif" fill="#242E3C">/analyze</text>
    <text x="250" y="448" font-size="24" font-family="Arial, Helvetica, sans-serif" fill="#64707E">Запуск полного анализа временного ряда</text>
    <rect x="1635" y="380" width="155" height="48" rx="14" fill="#F8FAFC" stroke="#D2DAE2" stroke-width="2"/>
    <text x="1660" y="412" font-size="22" font-family="Arial, Helvetica, sans-serif" fill="#566271">Try it out</text>
    
    <rect x="90" y="495" width="1740" height="135" rx="18" fill="#FFFFFF" stroke="#DCE1E8" stroke-width="2"/>
    <rect x="120" y="533" width="110" height="50" rx="14" fill="#4376D4"/>
    <text x="145" y="567" font-size="24" font-weight="700" font-family="Arial, Helvetica, sans-serif" fill="#FFFFFF">POST</text>
    <text x="250" y="565" font-size="32" font-weight="700" font-family="Arial, Helvetica, sans-serif" fill="#242E3C">/forecast</text>
    <text x="250" y="603" font-size="24" font-family="Arial, Helvetica, sans-serif" fill="#64707E">Краткосрочный прогноз по выбранному параметру</text>
    <rect x="1635" y="535" width="155" height="48" rx="14" fill="#F8FAFC" stroke="#D2DAE2" stroke-width="2"/>
    <text x="1660" y="567" font-size="22" font-family="Arial, Helvetica, sans-serif" fill="#566271">Try it out</text>
    
    <rect x="90" y="650" width="1740" height="135" rx="18" fill="#FFFFFF" stroke="#DCE1E8" stroke-width="2"/>
    <rect x="120" y="688" width="90" height="50" rx="14" fill="#49B88A"/>
    <text x="145" y="722" font-size="24" font-weight="700" font-family="Arial, Helvetica, sans-serif" fill="#FFFFFF">GET</text>
    <text x="250" y="720" font-size="32" font-weight="700" font-family="Arial, Helvetica, sans-serif" fill="#242E3C">/intervals</text>
    <text x="250" y="758" font-size="24" font-family="Arial, Helvetica, sans-serif" fill="#64707E">Получение найденных интервалов нестабильности</text>
    <rect x="1635" y="690" width="155" height="48" rx="14" fill="#F8FAFC" stroke="#D2DAE2" stroke-width="2"/>
    <text x="1660" y="722" font-size="22" font-family="Arial, Helvetica, sans-serif" fill="#566271">Try it out</text>
    
    <rect x="90" y="805" width="1740" height="135" rx="18" fill="#FFFFFF" stroke="#DCE1E8" stroke-width="2"/>
    <rect x="120" y="843" width="90" height="50" rx="14" fill="#49B88A"/>
    <text x="145" y="877" font-size="24" font-weight="700" font-family="Arial, Helvetica, sans-serif" fill="#FFFFFF">GET</text>
    <text x="250" y="875" font-size="32" font-weight="700" font-family="Arial, Helvetica, sans-serif" fill="#242E3C">/report</text>
    <text x="250" y="913" font-size="24" font-family="Arial, Helvetica, sans-serif" fill="#64707E">Возврат сформированного отчёта</text>
    <rect x="1635" y="845" width="155" height="48" rx="14" fill="#F8FAFC" stroke="#D2DAE2" stroke-width="2"/>
    <text x="1660" y="877" font-size="22" font-family="Arial, Helvetica, sans-serif" fill="#566271">Try it out</text>
    
<text x="95" y="980" font-size="22" font-family="Arial, Helvetica, sans-serif" fill="#78828E">Для видео-презентации достаточно показать /docs 5–10 секунд как признак интеграционной готовности</text>
</svg>