<?xml version="1.0" encoding="utf-8"?>
<!-- Generator: Adobe Illustrator 25.2.3, SVG Export Plug-In . SVG Version: 6.00 Build 0)  -->
<svg version="1.1" id="Слой_1" xmlns="http://www.w3.org/2000/svg" xmlns:xlink="http://www.w3.org/1999/xlink" x="0px" y="0px"
	 viewBox="0 0 1920 1080" style="enable-background:new 0 0 1920 1080;" xml:space="preserve">
<style type="text/css">
	.st0{fill:url(#SVGID_1_);}
	.st1{fill:#F0F5FA;}
	.st2{font-family:'Arial-BoldMT';}
	.st3{font-size:64px;}
	.st4{fill:#B4D0E5;}
	.st5{font-family:'ArialMT';}
	.st6{font-size:24px;}
	.st7{fill:#1A283C;stroke:#50C8FF;stroke-width:3;}
	.st8{fill:#FFFFFF;}
	.st9{font-size:32px;}
	.st10{fill:#C8DCEB;}
	.st11{fill:none;stroke:#50C8FF;stroke-width:6;}
	.st12{fill:#50C8FF;}
	.st13{enable-background:new    ;}
	.st14{fill:#8CA6BB;}
	.st15{font-size:22px;}
</style>
<linearGradient id="SVGID_1_" gradientUnits="userSpaceOnUse" x1="420.2812" y1="1080" x2="420.2812" y2="1079" gradientTransform="matrix(1920 0 0 -1080 -805980 1166400)">
	<stop  offset="0" style="stop-color:#0A121E"/>
	<stop  offset="1" style="stop-color:#142A3A"/>
</linearGradient>
<rect class="st0" width="1920" height="1080"/>
<text transform="matrix(1 0 0 1 120 140)" class="st1 st2 st3">Этапы внедрения</text>
<text transform="matrix(1 0 0 1 120 195)" class="st4 st5 st6">Как система переходит от MVP к использованию на предприятии</text>
<path class="st7" d="M145,380h310c13.8,0,25,11.2,25,25v190c0,13.8-11.2,25-25,25H145c-13.8,0-25-11.2-25-25V405
	C120,391.2,131.2,380,145,380z"/>
<text transform="matrix(1 0 0 1 145 438)" class="st8 st2 st9">1. Пилот</text>
<text transform="matrix(1 0 0 1 145 492)" class="st10 st5 st6">Запуск на архивных данных</text>
<text transform="matrix(1 0 0 1 145 526)" class="st10 st5 st6">конкретного процесса</text>
<line class="st11" x1="488" y1="500" x2="530" y2="500"/>
<polygon class="st12" points="530,500 515,490 515,510 "/>
<path class="st7" d="M565,380h310c13.8,0,25,11.2,25,25v190c0,13.8-11.2,25-25,25H565c-13.8,0-25-11.2-25-25V405
	C540,391.2,551.2,380,565,380z"/>
<text transform="matrix(1 0 0 1 565 438)" class="st8 st2 st9">2. Адаптация</text>
<text transform="matrix(1 0 0 1 565 492)" class="st10 st5 st6">Настройка параметров</text>
<text transform="matrix(1 0 0 1 565 526)" class="st13"><tspan x="0" y="0" class="st10 st5 st6">снижение </tspan><tspan x="0" y="28.8" class="st10 st5 st6">ложных срабатываний</tspan></text>
<text transform="matrix(1 0 0 1 565 588.7998)" class="st10 st5 st6">учёт особенностей объекта</text>
<line class="st11" x1="908" y1="500" x2="950" y2="500"/>
<polygon class="st12" points="950,500 935,490 935,510 "/>
<path class="st7" d="M985,380h310c13.8,0,25,11.2,25,25v190c0,13.8-11.2,25-25,25H985c-13.8,0-25-11.2-25-25V405
	C960,391.2,971.2,380,985,380z"/>
<text transform="matrix(1 0 0 1 985 438)" class="st8 st2 st9">3. Интеграция</text>
<text transform="matrix(1 0 0 1 985 492)" class="st10 st5 st6">Подключение через API</text>
<text transform="matrix(1 0 0 1 985 526)" class="st13"><tspan x="0" y="0" class="st10 st5 st6">встраивание в </tspan><tspan x="0" y="28.8" class="st10 st5 st6">ИТ-инфраструктуру</tspan></text>
<text transform="matrix(1 0 0 1 985 588.7998)" class="st10 st5 st6">автоматизация анализа</text>
<line class="st11" x1="1328" y1="500" x2="1370" y2="500"/>
<polygon class="st12" points="1370,500 1355,490 1355,510 "/>
<path class="st7" d="M1405,380h310c13.8,0,25,11.2,25,25v190c0,13.8-11.2,25-25,25h-310c-13.8,0-25-11.2-25-25V405
	C1380,391.2,1391.2,380,1405,380z"/>
<text transform="matrix(1 0 0 1 1405 438)" class="st8 st2 st9">4. Масштабирование</text>
<text transform="matrix(1 0 0 1 1405 492)" class="st13"><tspan x="0" y="0" class="st10 st5 st6">Расширение на </tspan><tspan x="0" y="28.8" class="st10 st5 st6">другие процессы</tspan></text>
<text transform="matrix(1 0 0 1 1405 554.7998)" class="st13"><tspan x="0" y="0" class="st10 st5 st6">использование в</tspan><tspan x="0" y="28.8" class="st10 st5 st6">разных подразделениях</tspan></text>
<text transform="matrix(1 0 0 1 120 950)" class="st14 st5 st15">От пилота к масштабируемому цифровому решению</text>
</svg>
