<?xml version="1.0" encoding="utf-8"?>
<!-- Generator: Adobe Illustrator 25.2.3, SVG Export Plug-In . SVG Version: 6.00 Build 0)  -->
<svg version="1.1" id="Слой_1" xmlns="http://www.w3.org/2000/svg" xmlns:xlink="http://www.w3.org/1999/xlink" x="0px" y="0px"
	 viewBox="0 0 1920 1080" style="enable-background:new 0 0 1920 1080;" xml:space="preserve">
<style type="text/css">
	.st0{fill:url(#SVGID_1_);}
	.st1{opacity:0.28;}
	.st2{fill:none;stroke:#29415A;}
	.st3{fill:none;stroke:#22384E;}
	.st4{fill:#F0F5FA;}
	.st5{font-family:'Arial-BoldMT';}
	.st6{font-size:64px;}
	.st7{fill:#B4D0E5;}
	.st8{font-family:'ArialMT';}
	.st9{font-size:28px;}
	.st10{fill:#0A0E16;}
	.st11{fill:#1A283C;stroke:#50C8FF;stroke-width:3;}
	.st12{fill:#50C8FF;}
	.st13{fill:#09121C;}
	.st14{font-size:20px;}
	.st15{fill:#FFFFFF;}
	.st16{fill:#C8DCEB;}
	.st17{font-size:22px;}
	.st18{fill:none;stroke:#50C8FF;stroke-width:5;}
	.st19{enable-background:new    ;}
	.st20{fill:#8CA6BB;}
</style>
<linearGradient id="SVGID_1_" gradientUnits="userSpaceOnUse" x1="420.2812" y1="1080" x2="420.2812" y2="1079" gradientTransform="matrix(1920 0 0 -1080 -805980 1166400)">
	<stop  offset="0" style="stop-color:#0A121E"/>
	<stop  offset="1" style="stop-color:#142A3A"/>
</linearGradient>
<rect class="st0" width="1920" height="1080"/>
<g class="st1">
	<line class="st2" x1="0" y1="0" x2="0" y2="1080"/>
	<line class="st2" x1="96" y1="0" x2="96" y2="1080"/>
	<line class="st2" x1="192" y1="0" x2="192" y2="1080"/>
	<line class="st2" x1="288" y1="0" x2="288" y2="1080"/>
	<line class="st2" x1="384" y1="0" x2="384" y2="1080"/>
	<line class="st2" x1="480" y1="0" x2="480" y2="1080"/>
	<line class="st2" x1="576" y1="0" x2="576" y2="1080"/>
	<line class="st2" x1="672" y1="0" x2="672" y2="1080"/>
	<line class="st2" x1="768" y1="0" x2="768" y2="1080"/>
	<line class="st2" x1="864" y1="0" x2="864" y2="1080"/>
	<line class="st2" x1="960" y1="0" x2="960" y2="1080"/>
	<line class="st2" x1="1056" y1="0" x2="1056" y2="1080"/>
	<line class="st2" x1="1152" y1="0" x2="1152" y2="1080"/>
	<line class="st2" x1="1248" y1="0" x2="1248" y2="1080"/>
	<line class="st2" x1="1344" y1="0" x2="1344" y2="1080"/>
	<line class="st2" x1="1440" y1="0" x2="1440" y2="1080"/>
	<line class="st2" x1="1536" y1="0" x2="1536" y2="1080"/>
	<line class="st2" x1="1632" y1="0" x2="1632" y2="1080"/>
	<line class="st2" x1="1728" y1="0" x2="1728" y2="1080"/>
	<line class="st2" x1="1824" y1="0" x2="1824" y2="1080"/>
	<line class="st3" x1="0" y1="0" x2="1920" y2="0"/>
	<line class="st3" x1="0" y1="96" x2="1920" y2="96"/>
	<line class="st3" x1="0" y1="192" x2="1920" y2="192"/>
	<line class="st3" x1="0" y1="288" x2="1920" y2="288"/>
	<line class="st3" x1="0" y1="384" x2="1920" y2="384"/>
	<line class="st3" x1="0" y1="480" x2="1920" y2="480"/>
	<line class="st3" x1="0" y1="576" x2="1920" y2="576"/>
	<line class="st3" x1="0" y1="672" x2="1920" y2="672"/>
	<line class="st3" x1="0" y1="768" x2="1920" y2="768"/>
	<line class="st3" x1="0" y1="864" x2="1920" y2="864"/>
	<line class="st3" x1="0" y1="960" x2="1920" y2="960"/>
	<line class="st3" x1="0" y1="1056" x2="1920" y2="1056"/>
</g>
<text transform="matrix(1 0 0 1 95 130)" class="st4 st5 st6">Как работает система</text>
<text transform="matrix(1 0 0 1 95 185)" class="st7 st8 st9">Pipeline обработки технологических временных рядов</text>
<path class="st10" d="M107,430h222c13.3,0,24,10.7,24,24v202c0,13.3-10.7,24-24,24H107c-13.3,0-24-10.7-24-24V454
	C83,440.7,93.7,430,107,430z"/>
<path class="st11" d="M99,420h222c13.3,0,24,10.7,24,24v202c0,13.3-10.7,24-24,24H99c-13.3,0-24-10.7-24-24V444
	C75,430.7,85.7,420,99,420z"/>
<path class="st12" d="M105,438h28c6.6,0,12,5.4,12,12v6c0,6.6-5.4,12-12,12h-28c-6.6,0-12-5.4-12-12v-6C93,443.4,98.4,438,105,438z"
	/>
<text transform="matrix(1 0 0 1 110 460)" class="st13 st5 st14">1</text>
<text transform="matrix(1 0 0 1 97 498)" class="st15 st5 st9">1. Загрузка</text>
<text transform="matrix(1 0 0 1 97 540)" class="st16 st8 st17">CSV / XLSX</text>
<text transform="matrix(1 0 0 1 97 570)" class="st16 st8 st17">временные метки</text>
<text transform="matrix(1 0 0 1 97 600)" class="st16 st8 st17">сигналы</text>
<line class="st18" x1="349" y1="545" x2="367" y2="545"/>
<polygon class="st12" points="367,545 353,535 353,555 "/>
<path class="st10" d="M407,430h222c13.3,0,24,10.7,24,24v202c0,13.3-10.7,24-24,24H407c-13.3,0-24-10.7-24-24V454
	C383,440.7,393.7,430,407,430z"/>
<path class="st11" d="M399,420h222c13.3,0,24,10.7,24,24v202c0,13.3-10.7,24-24,24H399c-13.3,0-24-10.7-24-24V444
	C375,430.7,385.7,420,399,420z"/>
<path class="st12" d="M405,438h28c6.6,0,12,5.4,12,12v6c0,6.6-5.4,12-12,12h-28c-6.6,0-12-5.4-12-12v-6C393,443.4,398.4,438,405,438
	z"/>
<text transform="matrix(1 0 0 1 410 460)" class="st13 st5 st14">2</text>
<text transform="matrix(1 0 0 1 397 498)" class="st15 st5 st9">2. Очистка</text>
<text transform="matrix(1 0 0 1 397 540)" class="st16 st8 st17">сортировка</text>
<text transform="matrix(1 0 0 1 397 570)" class="st16 st8 st17">дубликаты</text>
<text transform="matrix(1 0 0 1 397 600)" class="st16 st8 st17">пропуски</text>
<line class="st18" x1="649" y1="545" x2="667" y2="545"/>
<polygon class="st12" points="667,545 653,535 653,555 "/>
<path class="st10" d="M707,430h222c13.3,0,24,10.7,24,24v202c0,13.3-10.7,24-24,24H707c-13.3,0-24-10.7-24-24V454
	C683,440.7,693.7,430,707,430z"/>
<path class="st11" d="M699,420h222c13.3,0,24,10.7,24,24v202c0,13.3-10.7,24-24,24H699c-13.3,0-24-10.7-24-24V444
	C675,430.7,685.7,420,699,420z"/>
<path class="st12" d="M705,438h28c6.6,0,12,5.4,12,12v6c0,6.6-5.4,12-12,12h-28c-6.6,0-12-5.4-12-12v-6C693,443.4,698.4,438,705,438
	z"/>
<text transform="matrix(1 0 0 1 710 460)" class="st13 st5 st14">3</text>
<text transform="matrix(1 0 0 1 697 498)" class="st15 st5 st9">3. Признаки</text>
<text transform="matrix(1 0 0 1 697 540)" class="st16 st8 st17">локальные окна</text>
<text transform="matrix(1 0 0 1 697 570)" class="st16 st8 st17">изменение сигнала</text>
<text transform="matrix(1 0 0 1 697 600)" class="st16 st8 st17">вариация</text>
<line class="st18" x1="949" y1="545" x2="967" y2="545"/>
<polygon class="st12" points="967,545 953,535 953,555 "/>
<path class="st10" d="M1007,430h222c13.3,0,24,10.7,24,24v202c0,13.3-10.7,24-24,24h-222c-13.3,0-24-10.7-24-24V454
	C983,440.7,993.7,430,1007,430z"/>
<path class="st11" d="M999,420h222c13.3,0,24,10.7,24,24v202c0,13.3-10.7,24-24,24H999c-13.3,0-24-10.7-24-24V444
	C975,430.7,985.7,420,999,420z"/>
<path class="st12" d="M1005,438h28c6.6,0,12,5.4,12,12v6c0,6.6-5.4,12-12,12h-28c-6.6,0-12-5.4-12-12v-6
	C993,443.4,998.4,438,1005,438z"/>
<text transform="matrix(1 0 0 1 1010 460)" class="st13 st5 st14">4</text>
<text transform="matrix(1 0 0 1 997 498)" class="st15 st5 st9">4. Анализ</text>
<text transform="matrix(1 0 0 1 997 540)" class="st19"><tspan x="0" y="0" class="st16 st8 st17">normal / </tspan><tspan x="0" y="26.4" class="st16 st8 st17">warning / </tspan><tspan x="0" y="52.8" class="st16 st8 st17">unstable</tspan></text>
<text transform="matrix(1 0 0 1 997 622.7998)" class="st16 st8 st17">интервалы</text>
<line class="st18" x1="1249" y1="545" x2="1267" y2="545"/>
<polygon class="st12" points="1267,545 1253,535 1253,555 "/>
<path class="st10" d="M1307,430h222c13.3,0,24,10.7,24,24v202c0,13.3-10.7,24-24,24h-222c-13.3,0-24-10.7-24-24V454
	C1283,440.7,1293.7,430,1307,430z"/>
<path class="st11" d="M1299,420h222c13.3,0,24,10.7,24,24v202c0,13.3-10.7,24-24,24h-222c-13.3,0-24-10.7-24-24V444
	C1275,430.7,1285.7,420,1299,420z"/>
<path class="st12" d="M1305,438h28c6.6,0,12,5.4,12,12v6c0,6.6-5.4,12-12,12h-28c-6.6,0-12-5.4-12-12v-6
	C1293,443.4,1298.4,438,1305,438z"/>
<text transform="matrix(1 0 0 1 1310 460)" class="st13 st5 st14">5</text>
<text transform="matrix(1 0 0 1 1297 498)" class="st15 st5 st9">5. Прогноз</text>
<text transform="matrix(1 0 0 1 1297 540)" class="st16 st8 st17">краткосрочный прогноз</text>
<text transform="matrix(1 0 0 1 1297 570)" class="st16 st8 st17">оценка риска</text>
<line class="st18" x1="1549" y1="545" x2="1567" y2="545"/>
<polygon class="st12" points="1567,545 1553,535 1553,555 "/>
<path class="st10" d="M1607,430h222c13.3,0,24,10.7,24,24v202c0,13.3-10.7,24-24,24h-222c-13.3,0-24-10.7-24-24V454
	C1583,440.7,1593.7,430,1607,430z"/>
<path class="st11" d="M1599,420h222c13.3,0,24,10.7,24,24v202c0,13.3-10.7,24-24,24h-222c-13.3,0-24-10.7-24-24V444
	C1575,430.7,1585.7,420,1599,420z"/>
<path class="st12" d="M1605,438h28c6.6,0,12,5.4,12,12v6c0,6.6-5.4,12-12,12h-28c-6.6,0-12-5.4-12-12v-6
	C1593,443.4,1598.4,438,1605,438z"/>
<text transform="matrix(1 0 0 1 1610 460)" class="st13 st5 st14">6</text>
<text transform="matrix(1 0 0 1 1597 498)" class="st15 st5 st9">6. Результат</text>
<text transform="matrix(1 0 0 1 1597 540)" class="st16 st8 st17">отчёт</text>
<text transform="matrix(1 0 0 1 1597 570)" class="st16 st8 st17">API / интерфейс</text>
<text transform="matrix(1 0 0 1 95 965)" class="st20 st8 st17">От входного файла до интерпретируемого результата для инженера</text>
</svg>
