<svg xmlns="http://www.w3.org/2000/svg" width="1920" height="1080" viewBox="0 0 1920 1080">
<defs>
  <linearGradient id="bg" x1="0" y1="0" x2="0" y2="1">
    <stop offset="0%" stop-color="#0A121E"/>
    <stop offset="100%" stop-color="#142A3A"/>
  </linearGradient>
</defs>
<rect width="100%" height="100%" fill="url(#bg)"/>
<g opacity="0.28">
<line x1="0" y1="0" x2="0" y2="1080" stroke="#29415A" stroke-width="1"/><line x1="96" y1="0" x2="96" y2="1080" stroke="#29415A" stroke-width="1"/><line x1="192" y1="0" x2="192" y2="1080" stroke="#29415A" stroke-width="1"/><line x1="288" y1="0" x2="288" y2="1080" stroke="#29415A" stroke-width="1"/><line x1="384" y1="0" x2="384" y2="1080" stroke="#29415A" stroke-width="1"/><line x1="480" y1="0" x2="480" y2="1080" stroke="#29415A" stroke-width="1"/><line x1="576" y1="0" x2="576" y2="1080" stroke="#29415A" stroke-width="1"/><line x1="672" y1="0" x2="672" y2="1080" stroke="#29415A" stroke-width="1"/><line x1="768" y1="0" x2="768" y2="1080" stroke="#29415A" stroke-width="1"/><line x1="864" y1="0" x2="864" y2="1080" stroke="#29415A" stroke-width="1"/><line x1="960" y1="0" x2="960" y2="1080" stroke="#29415A" stroke-width="1"/><line x1="1056" y1="0" x2="1056" y2="1080" stroke="#29415A" stroke-width="1"/><line x1="1152" y1="0" x2="1152" y2="1080" stroke="#29415A" stroke-width="1"/><line x1="1248" y1="0" x2="1248" y2="1080" stroke="#29415A" stroke-width="1"/><line x1="1344" y1="0" x2="1344" y2="1080" stroke="#29415A" stroke-width="1"/><line x1="1440" y1="0" x2="1440" y2="1080" stroke="#29415A" stroke-width="1"/><line x1="1536" y1="0" x2="1536" y2="1080" stroke="#29415A" stroke-width="1"/><line x1="1632" y1="0" x2="1632" y2="1080" stroke="#29415A" stroke-width="1"/><line x1="1728" y1="0" x2="1728" y2="1080" stroke="#29415A" stroke-width="1"/><line x1="1824" y1="0" x2="1824" y2="1080" stroke="#29415A" stroke-width="1"/>
<line x1="0" y1="0" x2="1920" y2="0" stroke="#22384E" stroke-width="1"/><line x1="0" y1="96" x2="1920" y2="96" stroke="#22384E" stroke-width="1"/><line x1="0" y1="192" x2="1920" y2="192" stroke="#22384E" stroke-width="1"/><line x1="0" y1="288" x2="1920" y2="288" stroke="#22384E" stroke-width="1"/><line x1="0" y1="384" x2="1920" y2="384" stroke="#22384E" stroke-width="1"/><line x1="0" y1="480" x2="1920" y2="480" stroke="#22384E" stroke-width="1"/><line x1="0" y1="576" x2="1920" y2="576" stroke="#22384E" stroke-width="1"/><line x1="0" y1="672" x2="1920" y2="672" stroke="#22384E" stroke-width="1"/><line x1="0" y1="768" x2="1920" y2="768" stroke="#22384E" stroke-width="1"/><line x1="0" y1="864" x2="1920" y2="864" stroke="#22384E" stroke-width="1"/><line x1="0" y1="960" x2="1920" y2="960" stroke="#22384E" stroke-width="1"/><line x1="0" y1="1056" x2="1920" y2="1056" stroke="#22384E" stroke-width="1"/>
</g>
<text x="95" y="130" fill="#F0F5FA" font-size="64" font-weight="700" font-family="Arial, Helvetica, sans-serif">Как работает система</text>
<text x="95" y="185" fill="#B4D0E5" font-size="28" font-family="Arial, Helvetica, sans-serif">Pipeline обработки технологических временных рядов</text>
<rect x="83" y="430" width="270" height="250" rx="24" fill="#0A0E16"/><rect x="75" y="420" width="270" height="250" rx="24" fill="#1A283C" stroke="#50C8FF" stroke-width="3"/><rect x="93" y="438" width="52" height="30" rx="12" fill="#50C8FF"/><text x="110" y="460" fill="#09121C" font-size="20" font-weight="700" font-family="Arial, Helvetica, sans-serif">1</text><text x="97" y="498" fill="#FFFFFF" font-size="28" font-weight="700" font-family="Arial, Helvetica, sans-serif">1. Загрузка</text><text x="97" y="540" fill="#C8DCEB" font-size="22" font-family="Arial, Helvetica, sans-serif">CSV / XLSX</text><text x="97" y="570" fill="#C8DCEB" font-size="22" font-family="Arial, Helvetica, sans-serif">временные метки</text><text x="97" y="600" fill="#C8DCEB" font-size="22" font-family="Arial, Helvetica, sans-serif">сигналы</text><line x1="349" y1="545" x2="367" y2="545" stroke="#50C8FF" stroke-width="5"/><polygon points="367,545 353,535 353,555" fill="#50C8FF"/><rect x="383" y="430" width="270" height="250" rx="24" fill="#0A0E16"/><rect x="375" y="420" width="270" height="250" rx="24" fill="#1A283C" stroke="#50C8FF" stroke-width="3"/><rect x="393" y="438" width="52" height="30" rx="12" fill="#50C8FF"/><text x="410" y="460" fill="#09121C" font-size="20" font-weight="700" font-family="Arial, Helvetica, sans-serif">2</text><text x="397" y="498" fill="#FFFFFF" font-size="28" font-weight="700" font-family="Arial, Helvetica, sans-serif">2. Очистка</text><text x="397" y="540" fill="#C8DCEB" font-size="22" font-family="Arial, Helvetica, sans-serif">сортировка</text><text x="397" y="570" fill="#C8DCEB" font-size="22" font-family="Arial, Helvetica, sans-serif">дубликаты</text><text x="397" y="600" fill="#C8DCEB" font-size="22" font-family="Arial, Helvetica, sans-serif">пропуски</text><line x1="649" y1="545" x2="667" y2="545" stroke="#50C8FF" stroke-width="5"/><polygon points="667,545 653,535 653,555" fill="#50C8FF"/><rect x="683" y="430" width="270" height="250" rx="24" fill="#0A0E16"/><rect x="675" y="420" width="270" height="250" rx="24" fill="#1A283C" stroke="#50C8FF" stroke-width="3"/><rect x="693" y="438" width="52" height="30" rx="12" fill="#50C8FF"/><text x="710" y="460" fill="#09121C" font-size="20" font-weight="700" font-family="Arial, Helvetica, sans-serif">3</text><text x="697" y="498" fill="#FFFFFF" font-size="28" font-weight="700" font-family="Arial, Helvetica, sans-serif">3. Признаки</text><text x="697" y="540" fill="#C8DCEB" font-size="22" font-family="Arial, Helvetica, sans-serif">локальные окна</text><text x="697" y="570" fill="#C8DCEB" font-size="22" font-family="Arial, Helvetica, sans-serif">изменение сигнала</text><text x="697" y="600" fill="#C8DCEB" font-size="22" font-family="Arial, Helvetica, sans-serif">вариация</text><line x1="949" y1="545" x2="967" y2="545" stroke="#50C8FF" stroke-width="5"/><polygon points="967,545 953,535 953,555" fill="#50C8FF"/><rect x="983" y="430" width="270" height="250" rx="24" fill="#0A0E16"/><rect x="975" y="420" width="270" height="250" rx="24" fill="#1A283C" stroke="#50C8FF" stroke-width="3"/><rect x="993" y="438" width="52" height="30" rx="12" fill="#50C8FF"/><text x="1010" y="460" fill="#09121C" font-size="20" font-weight="700" font-family="Arial, Helvetica, sans-serif">4</text><text x="997" y="498" fill="#FFFFFF" font-size="28" font-weight="700" font-family="Arial, Helvetica, sans-serif">4. Анализ</text><text x="997" y="540" fill="#C8DCEB" font-size="22" font-family="Arial, Helvetica, sans-serif">normal / warning / unstable</text><text x="997" y="570" fill="#C8DCEB" font-size="22" font-family="Arial, Helvetica, sans-serif">интервалы</text><line x1="1249" y1="545" x2="1267" y2="545" stroke="#50C8FF" stroke-width="5"/><polygon points="1267,545 1253,535 1253,555" fill="#50C8FF"/><rect x="1283" y="430" width="270" height="250" rx="24" fill="#0A0E16"/><rect x="1275" y="420" width="270" height="250" rx="24" fill="#1A283C" stroke="#50C8FF" stroke-width="3"/><rect x="1293" y="438" width="52" height="30" rx="12" fill="#50C8FF"/><text x="1310" y="460" fill="#09121C" font-size="20" font-weight="700" font-family="Arial, Helvetica, sans-serif">5</text><text x="1297" y="498" fill="#FFFFFF" font-size="28" font-weight="700" font-family="Arial, Helvetica, sans-serif">5. Прогноз</text><text x="1297" y="540" fill="#C8DCEB" font-size="22" font-family="Arial, Helvetica, sans-serif">краткосрочный прогноз</text><text x="1297" y="570" fill="#C8DCEB" font-size="22" font-family="Arial, Helvetica, sans-serif">оценка риска</text><line x1="1549" y1="545" x2="1567" y2="545" stroke="#50C8FF" stroke-width="5"/><polygon points="1567,545 1553,535 1553,555" fill="#50C8FF"/><rect x="1583" y="430" width="270" height="250" rx="24" fill="#0A0E16"/><rect x="1575" y="420" width="270" height="250" rx="24" fill="#1A283C" stroke="#50C8FF" stroke-width="3"/><rect x="1593" y="438" width="52" height="30" rx="12" fill="#50C8FF"/><text x="1610" y="460" fill="#09121C" font-size="20" font-weight="700" font-family="Arial, Helvetica, sans-serif">6</text><text x="1597" y="498" fill="#FFFFFF" font-size="28" font-weight="700" font-family="Arial, Helvetica, sans-serif">6. Результат</text><text x="1597" y="540" fill="#C8DCEB" font-size="22" font-family="Arial, Helvetica, sans-serif">отчёт</text><text x="1597" y="570" fill="#C8DCEB" font-size="22" font-family="Arial, Helvetica, sans-serif">API / интерфейс</text><text x="95" y="965" fill="#8CA6BB" font-size="22" font-family="Arial, Helvetica, sans-serif">От входного файла до интерпретируемого результата для инженера</text></svg>