<svg xmlns="http://www.w3.org/2000/svg" width="1920" height="1080" viewBox="0 0 1920 1080">
<defs>
  <linearGradient id="bg" x1="0" y1="0" x2="0" y2="1">
    <stop offset="0%" stop-color="#0A121E"/>
    <stop offset="100%" stop-color="#142A3A"/>
  </linearGradient>
</defs>
<rect width="100%" height="100%" fill="url(#bg)"/>
<text x="120" y="150" fill="#F0F5FA" font-size="64" font-weight="700" font-family="Arial, Helvetica, sans-serif">Точки vs Интервалы</text>
<polyline points="120,655 126,620 132,660 138,605 144,675 150,615 156,650 162,590 168,645 174,630 180,665 186,610 192,640 198,600 204,655 210,625 216,655 222,620 228,660 234,605 240,675 246,615 252,650 258,590 264,645 270,630 276,665 282,610 288,640 294,600 300,655 306,625 312,655 318,620 324,660 330,605 336,675 342,615 348,650 354,590 360,645 366,630 372,665 378,610 384,640 390,600 396,655 402,625 408,655 414,620 420,660 426,605 432,675 438,615 444,650 450,590 456,645 462,630 468,665 474,610 480,640 486,600 492,655 498,625 504,655 510,620 516,660 522,605 528,675 534,615 540,650 546,590 552,645 558,630 564,665 570,610 576,640 582,600 588,655 594,625 600,655 606,620 612,660 618,605 624,675 630,615 636,650 642,590 648,645 654,630 660,665 666,610 672,640 678,600 684,655 690,625 696,655 702,620 708,660 714,605 720,675 726,615 732,650 738,590" stroke="#D8DADF" fill="none" stroke-width="3"/><circle cx="276" cy="665" r="5" fill="#FF5A5A"/><circle cx="282" cy="610" r="5" fill="#FF5A5A"/><circle cx="288" cy="640" r="5" fill="#FF5A5A"/><circle cx="294" cy="600" r="5" fill="#FF5A5A"/><circle cx="480" cy="640" r="5" fill="#FF5A5A"/><circle cx="486" cy="600" r="5" fill="#FF5A5A"/><circle cx="492" cy="655" r="5" fill="#FF5A5A"/><circle cx="498" cy="625" r="5" fill="#FF5A5A"/>
<polyline points="980,645 986,625 992,655 998,610 1004,670 1010,617 1016,645 1022,597 1028,640 1034,627 1040,657 1046,615 1052,643 1058,605 1064,653 1070,623 1076,645 1082,625 1088,655 1094,610 1100,670 1106,617 1112,645 1118,597 1124,640 1130,627 1136,657 1142,615 1148,643 1154,605 1160,653 1166,623 1172,645 1178,625 1184,655 1190,610 1196,670 1202,617 1208,645 1214,597 1220,640 1226,627 1232,657 1238,615 1244,643 1250,605 1256,653 1262,623 1268,645 1274,625 1280,655 1286,610 1292,670 1298,617 1304,645 1310,597 1316,640 1322,627 1328,657 1334,615 1340,643 1346,605 1352,653 1358,623 1364,645 1370,625 1376,655 1382,610 1388,670 1394,617 1400,645 1406,597 1412,640 1418,627 1424,657 1430,615 1436,643 1442,605 1448,653 1454,623 1460,645 1466,625 1472,655 1478,610 1484,670 1490,617 1496,645 1502,597 1508,640 1514,627 1520,657 1526,615 1532,643 1538,605 1544,653 1550,623 1556,645 1562,625 1568,655 1574,610 1580,670 1586,617 1592,645 1598,597" stroke="#D8DADF" fill="none" stroke-width="3"/>
<rect x="1136" y="500" width="36" height="285" fill="#FF5252" fill-opacity="0.9"/>
<rect x="1340" y="500" width="36" height="285" fill="#FF5252" fill-opacity="0.9"/>
<text x="120" y="820" fill="#C8DCEB" font-size="28" font-family="Arial, Helvetica, sans-serif">Отдельные аномальные точки</text>
<text x="980" y="820" fill="#C8DCEB" font-size="28" font-family="Arial, Helvetica, sans-serif">Интервалы нестабильности</text>
</svg>