<svg xmlns="http://www.w3.org/2000/svg" width="1920" height="1080" viewBox="0 0 1920 1080">
<defs>
  <linearGradient id="bg" x1="0" y1="0" x2="0" y2="1">
    <stop offset="0%" stop-color="#0A121E"/>
    <stop offset="100%" stop-color="#142A3A"/>
  </linearGradient>
</defs>
<rect width="100%" height="100%" fill="url(#bg)"/>
<text x="110" y="160" fill="#F0F5FA" font-size="64" font-weight="700" font-family="Arial, Helvetica, sans-serif">Проблема</text>
<circle cx="128" cy="334" r="11" fill="#50C8FF"/><text x="165" y="345" fill="#C8DCEB" font-size="32" font-family="Arial, Helvetica, sans-serif">Данные приходят в CSV / Excel</text><circle cx="128" cy="426" r="11" fill="#50C8FF"/><text x="165" y="437" fill="#C8DCEB" font-size="32" font-family="Arial, Helvetica, sans-serif">Пропуски и дубликаты</text><circle cx="128" cy="518" r="11" fill="#50C8FF"/><text x="165" y="529" fill="#C8DCEB" font-size="32" font-family="Arial, Helvetica, sans-serif">Ручной анализ графиков</text><circle cx="128" cy="610" r="11" fill="#50C8FF"/><text x="165" y="621" fill="#C8DCEB" font-size="32" font-family="Arial, Helvetica, sans-serif">Сложно быстро найти нестабильность</text><polyline points="900,690 906,630 912,710 918,610 924,730 930,590 936,670 942,600 948,660 954,615 960,665 966,605 972,680 978,595 984,685 990,630 996,690 1002,630 1008,710 1014,610 1020,730 1026,590 1032,670 1038,600 1044,660 1050,615 1056,665 1062,605 1068,680 1074,595 1080,685 1086,630 1092,690 1098,630 1104,710 1110,610 1116,730 1122,590 1128,670 1134,600 1140,660 1146,615 1152,665 1158,605 1164,680 1170,595 1176,685 1182,630 1188,690 1194,630 1200,710 1206,610 1212,730 1218,590 1224,670 1230,600 1236,660 1242,615 1248,665 1254,605 1260,680 1266,595 1272,685 1278,630 1284,690 1290,630 1296,710 1302,610 1308,730 1314,590 1320,670 1326,600 1332,660 1338,615 1344,665 1350,605 1356,680 1362,595 1368,685 1374,630 1380,690 1386,630 1392,710 1398,610 1404,730 1410,590 1416,670 1422,600 1428,660 1434,615 1440,665 1446,605 1452,680 1458,595 1464,685 1470,630 1476,690 1482,630 1488,710 1494,610 1500,730 1506,590 1512,670 1518,600 1524,660 1530,615 1536,665 1542,605 1548,680 1554,595" stroke="#FF8A8A" fill="none" stroke-width="4"/><text x="980" y="845" fill="#A9B7C6" font-size="24" font-family="Arial, Helvetica, sans-serif">Пример «грязного» сигнала</text></svg>