<?xml version="1.0" encoding="utf-8"?>
<!-- Generator: Adobe Illustrator 25.2.3, SVG Export Plug-In . SVG Version: 6.00 Build 0)  -->
<svg version="1.1" id="Слой_1" xmlns="http://www.w3.org/2000/svg" xmlns:xlink="http://www.w3.org/1999/xlink" x="0px" y="0px"
	 viewBox="0 0 1920 1080" style="enable-background:new 0 0 1920 1080;" xml:space="preserve">
<style type="text/css">
	.st0{fill:url(#SVGID_1_);}
	.st1{opacity:0.28;}
	.st2{fill:none;stroke:#29415A;}
	.st3{fill:none;stroke:#22384E;}
	.st4{fill:#152538;}
	.st5{fill:#28B4DC;}
	.st6{fill:#64DCFF;}
	.st7{enable-background:new    ;}
	.st8{fill:#F5F8FC;}
	.st9{font-family:'Arial-BoldMT';}
	.st10{font-size:66px;}
	.st11{fill:#BED2E1;}
	.st12{font-family:'ArialMT';}
	.st13{font-size:26px;}
	.st14{fill:#142032;stroke:#468CB4;stroke-width:2;}
	.st15{fill:#D7E9F3;}
	.st16{font-size:28px;}
	.st17{fill:#74C4DC;}
	.st18{font-size:24px;}
	.st19{fill:#F8FAFC;}
	.st20{font-size:38px;}
	.st21{font-size:27px;}
	.st22{fill:#18283E;stroke:#468CB4;stroke-width:2;}
	.st23{fill:#E4ECF3;}
	.st24{fill:none;stroke:#468CB4;stroke-width:3;}
</style>
<linearGradient id="SVGID_1_" gradientUnits="userSpaceOnUse" x1="420.2812" y1="1080" x2="420.2812" y2="1079" gradientTransform="matrix(1920 0 0 -1080 -805980 1166400)">
	<stop  offset="0" style="stop-color:#0A121E"/>
	<stop  offset="1" style="stop-color:#142A3A"/>
</linearGradient>
<rect class="st0" width="1920" height="1080"/>
<g class="st1">
	<line class="st2" x1="0" y1="0" x2="0" y2="1080"/>
	<line class="st2" x1="80" y1="0" x2="80" y2="1080"/>
	<line class="st2" x1="160" y1="0" x2="160" y2="1080"/>
	<line class="st2" x1="240" y1="0" x2="240" y2="1080"/>
	<line class="st2" x1="320" y1="0" x2="320" y2="1080"/>
	<line class="st2" x1="400" y1="0" x2="400" y2="1080"/>
	<line class="st2" x1="480" y1="0" x2="480" y2="1080"/>
	<line class="st2" x1="560" y1="0" x2="560" y2="1080"/>
	<line class="st2" x1="640" y1="0" x2="640" y2="1080"/>
	<line class="st2" x1="720" y1="0" x2="720" y2="1080"/>
	<line class="st2" x1="800" y1="0" x2="800" y2="1080"/>
	<line class="st2" x1="880" y1="0" x2="880" y2="1080"/>
	<line class="st2" x1="960" y1="0" x2="960" y2="1080"/>
	<line class="st2" x1="1040" y1="0" x2="1040" y2="1080"/>
	<line class="st2" x1="1120" y1="0" x2="1120" y2="1080"/>
	<line class="st2" x1="1200" y1="0" x2="1200" y2="1080"/>
	<line class="st2" x1="1280" y1="0" x2="1280" y2="1080"/>
	<line class="st2" x1="1360" y1="0" x2="1360" y2="1080"/>
	<line class="st2" x1="1440" y1="0" x2="1440" y2="1080"/>
	<line class="st2" x1="1520" y1="0" x2="1520" y2="1080"/>
	<line class="st2" x1="1600" y1="0" x2="1600" y2="1080"/>
	<line class="st2" x1="1680" y1="0" x2="1680" y2="1080"/>
	<line class="st2" x1="1760" y1="0" x2="1760" y2="1080"/>
	<line class="st2" x1="1840" y1="0" x2="1840" y2="1080"/>
	<line class="st3" x1="0" y1="0" x2="1920" y2="0"/>
	<line class="st3" x1="0" y1="80" x2="1920" y2="80"/>
	<line class="st3" x1="0" y1="160" x2="1920" y2="160"/>
	<line class="st3" x1="0" y1="240" x2="1920" y2="240"/>
	<line class="st3" x1="0" y1="320" x2="1920" y2="320"/>
	<line class="st3" x1="0" y1="400" x2="1920" y2="400"/>
	<line class="st3" x1="0" y1="480" x2="1920" y2="480"/>
	<line class="st3" x1="0" y1="560" x2="1920" y2="560"/>
	<line class="st3" x1="0" y1="640" x2="1920" y2="640"/>
	<line class="st3" x1="0" y1="720" x2="1920" y2="720"/>
	<line class="st3" x1="0" y1="800" x2="1920" y2="800"/>
	<line class="st3" x1="0" y1="880" x2="1920" y2="880"/>
	<line class="st3" x1="0" y1="960" x2="1920" y2="960"/>
	<line class="st3" x1="0" y1="1040" x2="1920" y2="1040"/>
</g>
<rect x="1150" class="st4" width="770" height="1080"/>
<path class="st5" d="M116,135h118c3.3,0,6,2.7,6,6l0,0c0,3.3-2.7,6-6,6H116c-3.3,0-6-2.7-6-6l0,0C110,137.7,112.7,135,116,135z"/>
<path class="st6" d="M113,160h354c1.7,0,3,1.3,3,3l0,0c0,1.7-1.3,3-3,3H113c-1.7,0-3-1.3-3-3l0,0C110,161.3,111.3,160,113,160z"/>
<text transform="matrix(1 0 0 1 110 270)" class="st7"><tspan x="0" y="0" class="st8 st9 st10">Интеллектуальная </tspan><tspan x="0" y="79.2" class="st8 st9 st10">система анализа</tspan></text>
<text transform="matrix(1 0 0 1 110 427.2002)" class="st7"><tspan x="0" y="0" class="st8 st9 st10">технологических </tspan><tspan x="0" y="79.2" class="st8 st9 st10">временных рядов</tspan></text>
<text transform="matrix(1 0 0 1 106.6237 594.362)" class="st11 st12 st13">MVP для анализа, прогноза и выявления нестабильности</text>
<g>
	<path class="st14" d="M108,906H434c10.7,0,19.3,8.1,19.3,18v18c0,9.9-8.6,18-19.3,18H108c-10.7,0-19.3-8.1-19.3-18v-18
		C88.7,914.1,97.3,906,108,906z"/>
	<text transform="matrix(1 0 0 1 106.6667 942)" class="st15 st12 st16">Анализ архивных данных</text>
	<path class="st14" d="M490.5,905h356.3c10.1,0,18.4,8.1,18.4,18v18c0,9.9-8.2,18-18.4,18H490.5c-10.1,0-18.4-8.1-18.4-18v-18
		C472.1,913.1,480.3,905,490.5,905z"/>
	<text transform="matrix(1 0 0 1 490.083 941)" class="st15 st12 st16">Интервалы нестабильности</text>
	<path class="st14" d="M897.8,905h195.8c8.7,0,15.7,8.1,15.7,18v18c0,9.9-7,18-15.7,18H897.8c-8.7,0-15.7-8.1-15.7-18v-18
		C882.1,913.1,889.1,905,897.8,905z"/>
	<text transform="matrix(1 0 0 1 900.083 941)" class="st15 st12 st16">Прогноз и риск</text>
</g>
<text transform="matrix(1 0 0 1 1215 180)" class="st17 st9 st18">КОНКУРСНЫЙ ПРОЕКТ</text>
<text transform="matrix(1 0 0 1 1215 270)" class="st19 st9 st20">Мулеев Александр</text>
<text transform="matrix(1 0 0 1 1215 330)" class="st11 st12 st16">Московский Авиационный Институт</text>
<text transform="matrix(1 0 0 1 1215 400)" class="st11 st12 st21">Олимпиада «Газпром»</text>
<text transform="matrix(1 0 0 1 1215 436)" class="st11 st12 st21">Профиль «Информационные</text>
<text transform="matrix(1 0 0 1 1215 472)" class="st11 st12 st21">системы и технологии»</text>
<g>
	<path class="st22" d="M1242,585h226c6.6,0,12,5.4,12,12v20c0,6.6-5.4,12-12,12h-226c-6.6,0-12-5.4-12-12v-20
		C1230,590.4,1235.4,585,1242,585z"/>
	<text transform="matrix(1 0 0 1 1247 615)" class="st23 st12 st18">CSV/XLSX</text>
	<line class="st24" x1="1355" y1="629" x2="1355" y2="650"/>
	<path class="st22" d="M1242,650h226c6.6,0,12,5.4,12,12v20c0,6.6-5.4,12-12,12h-226c-6.6,0-12-5.4-12-12v-20
		C1230,655.4,1235.4,650,1242,650z"/>
	<text transform="matrix(1 0 0 1 1247 680)" class="st23 st12 st18">Очистка</text>
	<line class="st24" x1="1355" y1="694" x2="1355" y2="715"/>
	<path class="st22" d="M1242,715h226c6.6,0,12,5.4,12,12v20c0,6.6-5.4,12-12,12h-226c-6.6,0-12-5.4-12-12v-20
		C1230,720.4,1235.4,715,1242,715z"/>
	<text transform="matrix(1 0 0 1 1247 745)" class="st23 st12 st18">Признаки</text>
	<line class="st24" x1="1355" y1="759" x2="1355" y2="780"/>
	<path class="st22" d="M1242,780h226c6.6,0,12,5.4,12,12v20c0,6.6-5.4,12-12,12h-226c-6.6,0-12-5.4-12-12v-20
		C1230,785.4,1235.4,780,1242,780z"/>
	<text transform="matrix(1 0 0 1 1247 810)" class="st23 st12 st18">Анализ</text>
	<line class="st24" x1="1355" y1="824" x2="1355" y2="845"/>
	<path class="st22" d="M1242,845h226c6.6,0,12,5.4,12,12v20c0,6.6-5.4,12-12,12h-226c-6.6,0-12-5.4-12-12v-20
		C1230,850.4,1235.4,845,1242,845z"/>
	<text transform="matrix(1 0 0 1 1247 875)" class="st23 st12 st18">Прогноз</text>
	<line class="st24" x1="1355" y1="889" x2="1355" y2="910"/>
	<path class="st22" d="M1242,910h226c6.6,0,12,5.4,12,12v20c0,6.6-5.4,12-12,12h-226c-6.6,0-12-5.4-12-12v-20
		C1230,915.4,1235.4,910,1242,910z"/>
	<text transform="matrix(1 0 0 1 1247 940)" class="st23 st12 st18">Отчёт / API</text>
</g>
</svg>
