<svg xmlns="http://www.w3.org/2000/svg" width="1920" height="1080" viewBox="0 0 1920 1080">
<defs>
  <linearGradient id="bg" x1="0" y1="0" x2="0" y2="1">
    <stop offset="0%" stop-color="#0A121E"/>
    <stop offset="100%" stop-color="#142A3A"/>
  </linearGradient>
</defs>
<rect width="100%" height="100%" fill="url(#bg)"/>
<g opacity="0.28">
<line x1="0" y1="0" x2="0" y2="1080" stroke="#29415A" stroke-width="1"/><line x1="80" y1="0" x2="80" y2="1080" stroke="#29415A" stroke-width="1"/><line x1="160" y1="0" x2="160" y2="1080" stroke="#29415A" stroke-width="1"/><line x1="240" y1="0" x2="240" y2="1080" stroke="#29415A" stroke-width="1"/><line x1="320" y1="0" x2="320" y2="1080" stroke="#29415A" stroke-width="1"/><line x1="400" y1="0" x2="400" y2="1080" stroke="#29415A" stroke-width="1"/><line x1="480" y1="0" x2="480" y2="1080" stroke="#29415A" stroke-width="1"/><line x1="560" y1="0" x2="560" y2="1080" stroke="#29415A" stroke-width="1"/><line x1="640" y1="0" x2="640" y2="1080" stroke="#29415A" stroke-width="1"/><line x1="720" y1="0" x2="720" y2="1080" stroke="#29415A" stroke-width="1"/><line x1="800" y1="0" x2="800" y2="1080" stroke="#29415A" stroke-width="1"/><line x1="880" y1="0" x2="880" y2="1080" stroke="#29415A" stroke-width="1"/><line x1="960" y1="0" x2="960" y2="1080" stroke="#29415A" stroke-width="1"/><line x1="1040" y1="0" x2="1040" y2="1080" stroke="#29415A" stroke-width="1"/><line x1="1120" y1="0" x2="1120" y2="1080" stroke="#29415A" stroke-width="1"/><line x1="1200" y1="0" x2="1200" y2="1080" stroke="#29415A" stroke-width="1"/><line x1="1280" y1="0" x2="1280" y2="1080" stroke="#29415A" stroke-width="1"/><line x1="1360" y1="0" x2="1360" y2="1080" stroke="#29415A" stroke-width="1"/><line x1="1440" y1="0" x2="1440" y2="1080" stroke="#29415A" stroke-width="1"/><line x1="1520" y1="0" x2="1520" y2="1080" stroke="#29415A" stroke-width="1"/><line x1="1600" y1="0" x2="1600" y2="1080" stroke="#29415A" stroke-width="1"/><line x1="1680" y1="0" x2="1680" y2="1080" stroke="#29415A" stroke-width="1"/><line x1="1760" y1="0" x2="1760" y2="1080" stroke="#29415A" stroke-width="1"/><line x1="1840" y1="0" x2="1840" y2="1080" stroke="#29415A" stroke-width="1"/>
<line x1="0" y1="0" x2="1920" y2="0" stroke="#22384E" stroke-width="1"/><line x1="0" y1="80" x2="1920" y2="80" stroke="#22384E" stroke-width="1"/><line x1="0" y1="160" x2="1920" y2="160" stroke="#22384E" stroke-width="1"/><line x1="0" y1="240" x2="1920" y2="240" stroke="#22384E" stroke-width="1"/><line x1="0" y1="320" x2="1920" y2="320" stroke="#22384E" stroke-width="1"/><line x1="0" y1="400" x2="1920" y2="400" stroke="#22384E" stroke-width="1"/><line x1="0" y1="480" x2="1920" y2="480" stroke="#22384E" stroke-width="1"/><line x1="0" y1="560" x2="1920" y2="560" stroke="#22384E" stroke-width="1"/><line x1="0" y1="640" x2="1920" y2="640" stroke="#22384E" stroke-width="1"/><line x1="0" y1="720" x2="1920" y2="720" stroke="#22384E" stroke-width="1"/><line x1="0" y1="800" x2="1920" y2="800" stroke="#22384E" stroke-width="1"/><line x1="0" y1="880" x2="1920" y2="880" stroke="#22384E" stroke-width="1"/><line x1="0" y1="960" x2="1920" y2="960" stroke="#22384E" stroke-width="1"/><line x1="0" y1="1040" x2="1920" y2="1040" stroke="#22384E" stroke-width="1"/>
</g>
<rect x="1150" y="0" width="770" height="1080" fill="#152538"/>
<rect x="110" y="135" rx="6" ry="6" width="130" height="12" fill="#28B4DC"/>
<rect x="110" y="160" rx="3" ry="3" width="360" height="6" fill="#64DCFF"/>
<text x="110" y="270" fill="#F5F8FC" font-size="66" font-weight="700" font-family="Arial, Helvetica, sans-serif">
<tspan x="110" dy="0">Интеллектуальная система анализа</tspan>
<tspan x="110" dy="78">технологических временных рядов</tspan>
</text>
<text x="110" y="450" fill="#BED2E1" font-size="26" font-family="Arial, Helvetica, sans-serif">MVP для анализа, прогноза и выявления нестабильности</text>
<g font-size="28" font-family="Arial, Helvetica, sans-serif" fill="#D7E9F3">
<rect x="110" y="560" rx="18" ry="18" width="340" height="54" fill="#142032" stroke="#468CB4" stroke-width="2"/><text x="128" y="596">Анализ архивных данных</text>
<rect x="475" y="560" rx="18" ry="18" width="385" height="54" fill="#142032" stroke="#468CB4" stroke-width="2"/><text x="493" y="596">Интервалы нестабильности</text>
<rect x="885" y="560" rx="18" ry="18" width="260" height="54" fill="#142032" stroke="#468CB4" stroke-width="2"/><text x="903" y="596">Прогноз и риск</text>
</g>
<text x="1215" y="180" fill="#74C4DC" font-size="24" font-weight="700" font-family="Arial, Helvetica, sans-serif">КОНКУРСНЫЙ ПРОЕКТ</text>
<text x="1215" y="270" fill="#F8FAFC" font-size="38" font-weight="700" font-family="Arial, Helvetica, sans-serif">[ФИО]</text>
<text x="1215" y="330" fill="#BED2E1" font-size="28" font-family="Arial, Helvetica, sans-serif">[Вуз]</text>
<text x="1215" y="400" fill="#BED2E1" font-size="27" font-family="Arial, Helvetica, sans-serif">
<tspan x="1215" dy="0">Олимпиада «Газпром»</tspan>
<tspan x="1215" dy="36">Профиль «Информационные</tspan>
<tspan x="1215" dy="36">системы и технологии»</tspan>
</text>
<g font-size="24" font-family="Arial, Helvetica, sans-serif" fill="#E4ECF3">
<rect x="1230" y="585" rx="12" ry="12" width="250" height="44" fill="#18283E" stroke="#468CB4" stroke-width="2"/><text x="1247" y="615">CSV/XLSX</text>
<line x1="1355" y1="629" x2="1355" y2="650" stroke="#468CB4" stroke-width="3"/>
<rect x="1230" y="650" rx="12" ry="12" width="250" height="44" fill="#18283E" stroke="#468CB4" stroke-width="2"/><text x="1247" y="680">Очистка</text>
<line x1="1355" y1="694" x2="1355" y2="715" stroke="#468CB4" stroke-width="3"/>
<rect x="1230" y="715" rx="12" ry="12" width="250" height="44" fill="#18283E" stroke="#468CB4" stroke-width="2"/><text x="1247" y="745">Признаки</text>
<line x1="1355" y1="759" x2="1355" y2="780" stroke="#468CB4" stroke-width="3"/>
<rect x="1230" y="780" rx="12" ry="12" width="250" height="44" fill="#18283E" stroke="#468CB4" stroke-width="2"/><text x="1247" y="810">Анализ</text>
<line x1="1355" y1="824" x2="1355" y2="845" stroke="#468CB4" stroke-width="3"/>
<rect x="1230" y="845" rx="12" ry="12" width="250" height="44" fill="#18283E" stroke="#468CB4" stroke-width="2"/><text x="1247" y="875">Прогноз</text>
<line x1="1355" y1="889" x2="1355" y2="910" stroke="#468CB4" stroke-width="3"/>
<rect x="1230" y="910" rx="12" ry="12" width="250" height="44" fill="#18283E" stroke="#468CB4" stroke-width="2"/><text x="1247" y="940">Отчёт / API</text>
</g>
</svg>